<svg width="1440" height="4908" viewBox="0 0 1440 4908" fill="none" xmlns="http://www.w3.org/2000/svg">
<g clip-path="url(#clip0_2352_31473)">
<rect width="1440" height="4908" fill="#1C1C28"/>
<rect width="1440" height="0" transform="translate(0 4908)" fill="white"/>
<mask id="mask0_2352_31473" style="mask-type:alpha" maskUnits="userSpaceOnUse" x="0" y="4116" width="1440" height="792">
<rect y="4116" width="1440" height="792" fill="url(#paint0_linear_2352_31473)"/>
</mask>
<g mask="url(#mask0_2352_31473)">
<rect y="4116" width="24" height="792" stroke="#393953" stroke-opacity="0.3"/>
<rect x="24" y="4116" width="24" height="792" stroke="#393953" stroke-opacity="0.3"/>
<rect x="48" y="4116" width="24" height="792" stroke="#393953" stroke-opacity="0.3"/>
<rect x="72" y="4116" width="24" height="792" stroke="#393953" stroke-opacity="0.3"/>
<rect x="96" y="4116" width="24" height="792" stroke="#393953" stroke-opacity="0.3"/>
<rect x="120" y="4116" width="24" height="792" stroke="#393953" stroke-opacity="0.3"/>
<rect x="144" y="4116" width="24" height="792" stroke="#393953" stroke-opacity="0.3"/>
<rect x="168" y="4116" width="24" height="792" stroke="#393953" stroke-opacity="0.3"/>
<rect x="192" y="4116" width="24" height="792" stroke="#393953" stroke-opacity="0.3"/>
<rect x="216" y="4116" width="24" height="792" stroke="#393953" stroke-opacity="0.3"/>
<rect x="240" y="4116" width="24" height="792" stroke="#393953" stroke-opacity="0.3"/>
<rect x="264" y="4116" width="24" height="792" stroke="#393953" stroke-opacity="0.3"/>
<rect x="288" y="4116" width="24" height="792" stroke="#393953" stroke-opacity="0.3"/>
<rect x="312" y="4116" width="24" height="792" stroke="#393953" stroke-opacity="0.3"/>
<rect x="336" y="4116" width="24" height="792" stroke="#393953" stroke-opacity="0.3"/>
<rect x="360" y="4116" width="24" height="792" stroke="#393953" stroke-opacity="0.3"/>
<rect x="384" y="4116" width="24" height="792" stroke="#393953" stroke-opacity="0.3"/>
<rect x="408" y="4116" width="24" height="792" stroke="#393953" stroke-opacity="0.3"/>
<rect x="432" y="4116" width="24" height="792" stroke="#393953" stroke-opacity="0.3"/>
<rect x="456" y="4116" width="24" height="792" stroke="#393953" stroke-opacity="0.3"/>
<rect x="480" y="4116" width="24" height="792" stroke="#393953" stroke-opacity="0.3"/>
<rect x="504" y="4116" width="24" height="792" stroke="#393953" stroke-opacity="0.3"/>
<rect x="528" y="4116" width="24" height="792" stroke="#393953" stroke-opacity="0.3"/>
<rect x="552" y="4116" width="24" height="792" stroke="#393953" stroke-opacity="0.3"/>
<rect x="576" y="4116" width="24" height="792" stroke="#393953" stroke-opacity="0.3"/>
<rect x="600" y="4116" width="24" height="792" stroke="#393953" stroke-opacity="0.3"/>
<rect x="624" y="4116" width="24" height="792" stroke="#393953" stroke-opacity="0.3"/>
<rect x="648" y="4116" width="24" height="792" stroke="#393953" stroke-opacity="0.3"/>
<rect x="672" y="4116" width="24" height="792" stroke="#393953" stroke-opacity="0.3"/>
<rect x="696" y="4116" width="24" height="792" stroke="#393953" stroke-opacity="0.3"/>
<rect x="720" y="4116" width="24" height="792" stroke="#393953" stroke-opacity="0.3"/>
<rect x="744" y="4116" width="24" height="792" stroke="#393953" stroke-opacity="0.3"/>
<rect x="768" y="4116" width="24" height="792" stroke="#393953" stroke-opacity="0.3"/>
<rect x="792" y="4116" width="24" height="792" stroke="#393953" stroke-opacity="0.3"/>
<rect x="816" y="4116" width="24" height="792" stroke="#393953" stroke-opacity="0.3"/>
<rect x="840" y="4116" width="24" height="792" stroke="#393953" stroke-opacity="0.3"/>
<rect x="864" y="4116" width="24" height="792" stroke="#393953" stroke-opacity="0.3"/>
<rect x="888" y="4116" width="24" height="792" stroke="#393953" stroke-opacity="0.3"/>
<rect x="912" y="4116" width="24" height="792" stroke="#393953" stroke-opacity="0.3"/>
<rect x="936" y="4116" width="24" height="792" stroke="#393953" stroke-opacity="0.3"/>
<rect x="960" y="4116" width="24" height="792" stroke="#393953" stroke-opacity="0.3"/>
<rect x="984" y="4116" width="24" height="792" stroke="#393953" stroke-opacity="0.3"/>
<rect x="1008" y="4116" width="24" height="792" stroke="#393953" stroke-opacity="0.3"/>
<rect x="1032" y="4116" width="24" height="792" stroke="#393953" stroke-opacity="0.3"/>
<rect x="1056" y="4116" width="24" height="792" stroke="#393953" stroke-opacity="0.3"/>
<rect x="1080" y="4116" width="24" height="792" stroke="#393953" stroke-opacity="0.3"/>
<rect x="1104" y="4116" width="24" height="792" stroke="#393953" stroke-opacity="0.3"/>
<rect x="1128" y="4116" width="24" height="792" stroke="#393953" stroke-opacity="0.3"/>
<rect x="1152" y="4116" width="24" height="792" stroke="#393953" stroke-opacity="0.3"/>
<rect x="1176" y="4116" width="24" height="792" stroke="#393953" stroke-opacity="0.3"/>
<rect x="1200" y="4116" width="24" height="792" stroke="#393953" stroke-opacity="0.3"/>
<rect x="1224" y="4116" width="24" height="792" stroke="#393953" stroke-opacity="0.3"/>
<rect x="1248" y="4116" width="24" height="792" stroke="#393953" stroke-opacity="0.3"/>
<rect x="1272" y="4116" width="24" height="792" stroke="#393953" stroke-opacity="0.3"/>
<rect x="1296" y="4116" width="24" height="792" stroke="#393953" stroke-opacity="0.3"/>
<rect x="1320" y="4116" width="24" height="792" stroke="#393953" stroke-opacity="0.3"/>
<rect x="1344" y="4116" width="24" height="792" stroke="#393953" stroke-opacity="0.3"/>
<rect x="1368" y="4116" width="24" height="792" stroke="#393953" stroke-opacity="0.3"/>
<rect x="1392" y="4116" width="24" height="792" stroke="#393953" stroke-opacity="0.3"/>
<rect x="1416" y="4116" width="24" height="792" stroke="#393953" stroke-opacity="0.3"/>
<rect y="4140" width="24" height="1440" transform="rotate(-90 0 4140)" stroke="#393953" stroke-opacity="0.3"/>
<rect y="4164" width="24" height="1440" transform="rotate(-90 0 4164)" stroke="#393953" stroke-opacity="0.3"/>
<rect y="4188" width="24" height="1440" transform="rotate(-90 0 4188)" stroke="#393953" stroke-opacity="0.3"/>
<rect y="4212" width="24" height="1440" transform="rotate(-90 0 4212)" stroke="#393953" stroke-opacity="0.3"/>
<rect y="4236" width="24" height="1440" transform="rotate(-90 0 4236)" stroke="#393953" stroke-opacity="0.3"/>
<rect y="4260" width="24" height="1440" transform="rotate(-90 0 4260)" stroke="#393953" stroke-opacity="0.3"/>
<rect y="4284" width="24" height="1440" transform="rotate(-90 0 4284)" stroke="#393953" stroke-opacity="0.3"/>
<rect y="4308" width="24" height="1440" transform="rotate(-90 0 4308)" stroke="#393953" stroke-opacity="0.3"/>
<rect y="4332" width="24" height="1440" transform="rotate(-90 0 4332)" stroke="#393953" stroke-opacity="0.3"/>
<rect y="4356" width="24" height="1440" transform="rotate(-90 0 4356)" stroke="#393953" stroke-opacity="0.3"/>
<rect y="4380" width="24" height="1440" transform="rotate(-90 0 4380)" stroke="#393953" stroke-opacity="0.3"/>
<rect y="4404" width="24" height="1440" transform="rotate(-90 0 4404)" stroke="#393953" stroke-opacity="0.3"/>
<rect y="4428" width="24" height="1440" transform="rotate(-90 0 4428)" stroke="#393953" stroke-opacity="0.3"/>
<rect y="4452" width="24" height="1440" transform="rotate(-90 0 4452)" stroke="#393953" stroke-opacity="0.3"/>
<rect y="4476" width="24" height="1440" transform="rotate(-90 0 4476)" stroke="#393953" stroke-opacity="0.3"/>
<rect y="4500" width="24" height="1440" transform="rotate(-90 0 4500)" stroke="#393953" stroke-opacity="0.3"/>
<rect y="4524" width="24" height="1440" transform="rotate(-90 0 4524)" stroke="#393953" stroke-opacity="0.3"/>
<rect y="4548" width="24" height="1440" transform="rotate(-90 0 4548)" stroke="#393953" stroke-opacity="0.3"/>
<rect y="4572" width="24" height="1440" transform="rotate(-90 0 4572)" stroke="#393953" stroke-opacity="0.3"/>
<rect y="4596" width="24" height="1440" transform="rotate(-90 0 4596)" stroke="#393953" stroke-opacity="0.3"/>
<rect y="4620" width="24" height="1440" transform="rotate(-90 0 4620)" stroke="#393953" stroke-opacity="0.3"/>
<rect y="4644" width="24" height="1440" transform="rotate(-90 0 4644)" stroke="#393953" stroke-opacity="0.3"/>
<rect y="4668" width="24" height="1440" transform="rotate(-90 0 4668)" stroke="#393953" stroke-opacity="0.3"/>
<rect y="4692" width="24" height="1440" transform="rotate(-90 0 4692)" stroke="#393953" stroke-opacity="0.3"/>
<rect y="4716" width="24" height="1440" transform="rotate(-90 0 4716)" stroke="#393953" stroke-opacity="0.3"/>
<rect y="4740" width="24" height="1440" transform="rotate(-90 0 4740)" stroke="#393953" stroke-opacity="0.3"/>
<rect y="4764" width="24" height="1440" transform="rotate(-90 0 4764)" stroke="#393953" stroke-opacity="0.3"/>
<rect y="4788" width="24" height="1440" transform="rotate(-90 0 4788)" stroke="#393953" stroke-opacity="0.3"/>
<rect y="4812" width="24" height="1440" transform="rotate(-90 0 4812)" stroke="#393953" stroke-opacity="0.3"/>
<rect y="4836" width="24" height="1440" transform="rotate(-90 0 4836)" stroke="#393953" stroke-opacity="0.3"/>
<rect y="4860" width="24" height="1440" transform="rotate(-90 0 4860)" stroke="#393953" stroke-opacity="0.3"/>
<rect y="4884" width="24" height="1440" transform="rotate(-90 0 4884)" stroke="#393953" stroke-opacity="0.3"/>
<rect y="4908" width="24" height="1440" transform="rotate(-90 0 4908)" stroke="#393953" stroke-opacity="0.3"/>
</g>
<rect width="1440" height="0" fill="white"/>
<mask id="mask1_2352_31473" style="mask-type:alpha" maskUnits="userSpaceOnUse" x="0" y="0" width="1441" height="792">
<rect x="0.191406" width="1440" height="792" fill="url(#paint1_linear_2352_31473)"/>
</mask>
<g mask="url(#mask1_2352_31473)">
<rect x="0.191406" width="24" height="792" stroke="#393953" stroke-opacity="0.3"/>
<rect x="24.1914" width="24" height="792" stroke="#393953" stroke-opacity="0.3"/>
<rect x="48.1914" width="24" height="792" stroke="#393953" stroke-opacity="0.3"/>
<rect x="72.1914" width="24" height="792" stroke="#393953" stroke-opacity="0.3"/>
<rect x="96.1914" width="24" height="792" stroke="#393953" stroke-opacity="0.3"/>
<rect x="120.191" width="24" height="792" stroke="#393953" stroke-opacity="0.3"/>
<rect x="144.191" width="24" height="792" stroke="#393953" stroke-opacity="0.3"/>
<rect x="168.191" width="24" height="792" stroke="#393953" stroke-opacity="0.3"/>
<rect x="192.191" width="24" height="792" stroke="#393953" stroke-opacity="0.3"/>
<rect x="216.191" width="24" height="792" stroke="#393953" stroke-opacity="0.3"/>
<rect x="240.191" width="24" height="792" stroke="#393953" stroke-opacity="0.3"/>
<rect x="264.191" width="24" height="792" stroke="#393953" stroke-opacity="0.3"/>
<rect x="288.191" width="24" height="792" stroke="#393953" stroke-opacity="0.3"/>
<rect x="312.191" width="24" height="792" stroke="#393953" stroke-opacity="0.3"/>
<rect x="336.191" width="24" height="792" stroke="#393953" stroke-opacity="0.3"/>
<rect x="360.191" width="24" height="792" stroke="#393953" stroke-opacity="0.3"/>
<rect x="384.191" width="24" height="792" stroke="#393953" stroke-opacity="0.3"/>
<rect x="408.191" width="24" height="792" stroke="#393953" stroke-opacity="0.3"/>
<rect x="432.191" width="24" height="792" stroke="#393953" stroke-opacity="0.3"/>
<rect x="456.191" width="24" height="792" stroke="#393953" stroke-opacity="0.3"/>
<rect x="480.191" width="24" height="792" stroke="#393953" stroke-opacity="0.3"/>
<rect x="504.191" width="24" height="792" stroke="#393953" stroke-opacity="0.3"/>
<rect x="528.191" width="24" height="792" stroke="#393953" stroke-opacity="0.3"/>
<rect x="552.191" width="24" height="792" stroke="#393953" stroke-opacity="0.3"/>
<rect x="576.191" width="24" height="792" stroke="#393953" stroke-opacity="0.3"/>
<rect x="600.191" width="24" height="792" stroke="#393953" stroke-opacity="0.3"/>
<rect x="624.191" width="24" height="792" stroke="#393953" stroke-opacity="0.3"/>
<rect x="648.191" width="24" height="792" stroke="#393953" stroke-opacity="0.3"/>
<rect x="672.191" width="24" height="792" stroke="#393953" stroke-opacity="0.3"/>
<rect x="696.191" width="24" height="792" stroke="#393953" stroke-opacity="0.3"/>
<rect x="720.191" width="24" height="792" stroke="#393953" stroke-opacity="0.3"/>
<rect x="744.191" width="24" height="792" stroke="#393953" stroke-opacity="0.3"/>
<rect x="768.191" width="24" height="792" stroke="#393953" stroke-opacity="0.3"/>
<rect x="792.191" width="24" height="792" stroke="#393953" stroke-opacity="0.3"/>
<rect x="816.191" width="24" height="792" stroke="#393953" stroke-opacity="0.3"/>
<rect x="840.191" width="24" height="792" stroke="#393953" stroke-opacity="0.3"/>
<rect x="864.191" width="24" height="792" stroke="#393953" stroke-opacity="0.3"/>
<rect x="888.191" width="24" height="792" stroke="#393953" stroke-opacity="0.3"/>
<rect x="912.191" width="24" height="792" stroke="#393953" stroke-opacity="0.3"/>
<rect x="936.191" width="24" height="792" stroke="#393953" stroke-opacity="0.3"/>
<rect x="960.191" width="24" height="792" stroke="#393953" stroke-opacity="0.3"/>
<rect x="984.191" width="24" height="792" stroke="#393953" stroke-opacity="0.3"/>
<rect x="1008.19" width="24" height="792" stroke="#393953" stroke-opacity="0.3"/>
<rect x="1032.19" width="24" height="792" stroke="#393953" stroke-opacity="0.3"/>
<rect x="1056.19" width="24" height="792" stroke="#393953" stroke-opacity="0.3"/>
<rect x="1080.19" width="24" height="792" stroke="#393953" stroke-opacity="0.3"/>
<rect x="1104.19" width="24" height="792" stroke="#393953" stroke-opacity="0.3"/>
<rect x="1128.19" width="24" height="792" stroke="#393953" stroke-opacity="0.3"/>
<rect x="1152.19" width="24" height="792" stroke="#393953" stroke-opacity="0.3"/>
<rect x="1176.19" width="24" height="792" stroke="#393953" stroke-opacity="0.3"/>
<rect x="1200.19" width="24" height="792" stroke="#393953" stroke-opacity="0.3"/>
<rect x="1224.19" width="24" height="792" stroke="#393953" stroke-opacity="0.3"/>
<rect x="1248.19" width="24" height="792" stroke="#393953" stroke-opacity="0.3"/>
<rect x="1272.19" width="24" height="792" stroke="#393953" stroke-opacity="0.3"/>
<rect x="1296.19" width="24" height="792" stroke="#393953" stroke-opacity="0.3"/>
<rect x="1320.19" width="24" height="792" stroke="#393953" stroke-opacity="0.3"/>
<rect x="1344.19" width="24" height="792" stroke="#393953" stroke-opacity="0.3"/>
<rect x="1368.19" width="24" height="792" stroke="#393953" stroke-opacity="0.3"/>
<rect x="1392.19" width="24" height="792" stroke="#393953" stroke-opacity="0.3"/>
<rect x="1416.19" width="24" height="792" stroke="#393953" stroke-opacity="0.3"/>
<rect x="0.191406" y="24" width="24" height="1440" transform="rotate(-90 0.191406 24)" stroke="#393953" stroke-opacity="0.3"/>
<rect x="0.191406" y="48" width="24" height="1440" transform="rotate(-90 0.191406 48)" stroke="#393953" stroke-opacity="0.3"/>
<rect x="0.191406" y="72" width="24" height="1440" transform="rotate(-90 0.191406 72)" stroke="#393953" stroke-opacity="0.3"/>
<rect x="0.191406" y="96" width="24" height="1440" transform="rotate(-90 0.191406 96)" stroke="#393953" stroke-opacity="0.3"/>
<rect x="0.191406" y="120" width="24" height="1440" transform="rotate(-90 0.191406 120)" stroke="#393953" stroke-opacity="0.3"/>
<rect x="0.191406" y="144" width="24" height="1440" transform="rotate(-90 0.191406 144)" stroke="#393953" stroke-opacity="0.3"/>
<rect x="0.191406" y="168" width="24" height="1440" transform="rotate(-90 0.191406 168)" stroke="#393953" stroke-opacity="0.3"/>
<rect x="0.191406" y="192" width="24" height="1440" transform="rotate(-90 0.191406 192)" stroke="#393953" stroke-opacity="0.3"/>
<rect x="0.191406" y="216" width="24" height="1440" transform="rotate(-90 0.191406 216)" stroke="#393953" stroke-opacity="0.3"/>
<rect x="0.191406" y="240" width="24" height="1440" transform="rotate(-90 0.191406 240)" stroke="#393953" stroke-opacity="0.3"/>
<rect x="0.191406" y="264" width="24" height="1440" transform="rotate(-90 0.191406 264)" stroke="#393953" stroke-opacity="0.3"/>
<rect x="0.191406" y="288" width="24" height="1440" transform="rotate(-90 0.191406 288)" stroke="#393953" stroke-opacity="0.3"/>
<rect x="0.191406" y="312" width="24" height="1440" transform="rotate(-90 0.191406 312)" stroke="#393953" stroke-opacity="0.3"/>
<rect x="0.191406" y="336" width="24" height="1440" transform="rotate(-90 0.191406 336)" stroke="#393953" stroke-opacity="0.3"/>
<rect x="0.191406" y="360" width="24" height="1440" transform="rotate(-90 0.191406 360)" stroke="#393953" stroke-opacity="0.3"/>
<rect x="0.191406" y="384" width="24" height="1440" transform="rotate(-90 0.191406 384)" stroke="#393953" stroke-opacity="0.3"/>
<rect x="0.191406" y="408" width="24" height="1440" transform="rotate(-90 0.191406 408)" stroke="#393953" stroke-opacity="0.3"/>
<rect x="0.191406" y="432" width="24" height="1440" transform="rotate(-90 0.191406 432)" stroke="#393953" stroke-opacity="0.3"/>
<rect x="0.191406" y="456" width="24" height="1440" transform="rotate(-90 0.191406 456)" stroke="#393953" stroke-opacity="0.3"/>
<rect x="0.191406" y="480" width="24" height="1440" transform="rotate(-90 0.191406 480)" stroke="#393953" stroke-opacity="0.3"/>
<rect x="0.191406" y="504" width="24" height="1440" transform="rotate(-90 0.191406 504)" stroke="#393953" stroke-opacity="0.3"/>
<rect x="0.191406" y="528" width="24" height="1440" transform="rotate(-90 0.191406 528)" stroke="#393953" stroke-opacity="0.3"/>
<rect x="0.191406" y="552" width="24" height="1440" transform="rotate(-90 0.191406 552)" stroke="#393953" stroke-opacity="0.3"/>
<rect x="0.191406" y="576" width="24" height="1440" transform="rotate(-90 0.191406 576)" stroke="#393953" stroke-opacity="0.3"/>
<rect x="0.191406" y="600" width="24" height="1440" transform="rotate(-90 0.191406 600)" stroke="#393953" stroke-opacity="0.3"/>
<rect x="0.191406" y="624" width="24" height="1440" transform="rotate(-90 0.191406 624)" stroke="#393953" stroke-opacity="0.3"/>
<rect x="0.191406" y="648" width="24" height="1440" transform="rotate(-90 0.191406 648)" stroke="#393953" stroke-opacity="0.3"/>
<rect x="0.191406" y="672" width="24" height="1440" transform="rotate(-90 0.191406 672)" stroke="#393953" stroke-opacity="0.3"/>
<rect x="0.191406" y="696" width="24" height="1440" transform="rotate(-90 0.191406 696)" stroke="#393953" stroke-opacity="0.3"/>
<rect x="0.191406" y="720" width="24" height="1440" transform="rotate(-90 0.191406 720)" stroke="#393953" stroke-opacity="0.3"/>
<rect x="0.191406" y="744" width="24" height="1440" transform="rotate(-90 0.191406 744)" stroke="#393953" stroke-opacity="0.3"/>
<rect x="0.191406" y="768" width="24" height="1440" transform="rotate(-90 0.191406 768)" stroke="#393953" stroke-opacity="0.3"/>
<rect x="0.191406" y="792" width="24" height="1440" transform="rotate(-90 0.191406 792)" stroke="#393953" stroke-opacity="0.3"/>
</g>
</g>
<defs>
<linearGradient id="paint0_linear_2352_31473" x1="720" y1="4908" x2="720" y2="4033.5" gradientUnits="userSpaceOnUse">
<stop stop-color="white"/>
<stop offset="1" stop-color="white" stop-opacity="0"/>
</linearGradient>
<linearGradient id="paint1_linear_2352_31473" x1="720.191" y1="0" x2="720.191" y2="792" gradientUnits="userSpaceOnUse">
<stop stop-color="white"/>
<stop offset="1" stop-color="white" stop-opacity="0"/>
</linearGradient>
<clipPath id="clip0_2352_31473">
<rect width="1440" height="4908" fill="white"/>
</clipPath>
</defs>
</svg>
